<svg version="1.1" id="Layer_1" xmlns="http://www.w3.org/2000/svg" xmlns:xlink="http://www.w3.org/1999/xlink" x="0px" y="0px"
	 width="100%" viewBox="0 0 782 345" enable-background="new 0 0 782 345" xml:space="preserve">
<path fill="#020913" opacity="1.000000" stroke="none" 
	d="
M479.000000,346.000000 
	C320.868317,346.000000 163.236603,345.987244 5.604955,346.081360 
	C2.053067,346.083496 0.885142,345.593292 0.890007,341.606781 
	C1.026853,229.465149 1.025936,117.323296 0.888488,5.181671 
	C0.883841,1.389701 1.894644,0.917516 5.316608,0.918696 
	C263.092712,1.007574 520.868896,1.006452 778.645020,0.928485 
	C781.957336,0.927483 783.124573,1.241255 783.119446,5.143299 
	C782.971436,117.451523 782.977478,229.760010 783.103394,342.068268 
	C783.107361,345.629333 782.210388,346.088776 778.933289,346.085327 
	C679.122253,345.980713 579.311096,346.000000 479.000000,346.000000 
z"/>
<path fill="#1056B8" opacity="1.000000" stroke="none" 
	d="
M73.082031,193.943054 
	C65.412430,168.650543 66.883743,144.221771 77.177155,120.372246 
	C78.501648,117.303444 78.047760,115.200111 76.297348,112.609596 
	C70.472649,103.989372 65.392151,94.957664 64.987671,84.213295 
	C64.322945,66.555504 79.096016,55.026848 95.957993,60.424667 
	C108.990196,64.596512 122.020058,68.743767 135.619858,70.324883 
	C171.513504,74.497871 207.105103,74.010895 241.687073,61.749313 
	C249.826920,58.863201 257.809143,57.592617 265.775513,62.162735 
	C275.244904,67.595085 279.356720,78.838127 276.311371,90.919319 
	C274.285095,98.957649 270.498383,106.165283 265.752380,112.854683 
	C263.996674,115.329285 263.750793,117.368530 264.971832,120.155464 
	C280.149841,154.798691 275.095367,188.248810 258.172699,220.617584 
	C245.876678,244.136765 229.348511,264.187988 206.629181,278.551147 
	C194.184662,286.418549 180.647232,291.248657 165.926331,292.548462 
	C149.074844,294.036377 138.633469,281.571289 143.345871,265.256317 
	C144.399750,261.607635 142.381058,261.358215 140.116730,260.659698 
	C123.191551,255.438416 108.699448,246.254471 96.494911,233.500931 
	C85.733711,222.255661 78.040207,209.122009 73.082031,193.943054 
z"/>
<path fill="#1057BA" opacity="1.000000" stroke="none" 
	d="
M596.022583,173.044754 
	C597.125244,180.977905 594.546753,185.842804 587.675537,188.398224 
	C578.953247,191.642075 570.075989,191.384216 561.229370,188.755737 
	C557.714294,187.711349 556.241455,185.254608 556.261658,181.623596 
	C556.322021,170.811890 556.311768,159.999496 556.262207,149.187683 
	C556.249512,146.417953 556.993591,144.164276 559.865906,143.357437 
	C569.027039,140.784149 578.277832,140.054169 587.241577,143.828384 
	C595.826233,147.443008 597.465027,156.677536 590.812012,163.144440 
	C589.113037,164.795883 588.875488,165.535782 591.036499,166.651260 
	C593.517517,167.931931 595.147644,169.975647 596.022583,173.044754 
z"/>
<path fill="#1056B8" opacity="1.000000" stroke="none" 
	d="
M359.237305,185.337158 
	C359.192383,179.085266 359.231506,173.264648 359.140228,167.446060 
	C359.080688,163.651550 357.222168,161.626144 353.218445,161.732086 
	C350.167084,161.812836 348.682434,162.997238 348.756134,166.258759 
	C348.898865,172.574219 348.758636,178.895523 348.810486,185.213821 
	C348.831879,187.823441 348.975800,190.472687 345.351685,190.574890 
	C341.768860,190.675934 337.715881,191.551620 336.073059,186.914764 
	C335.534302,185.394165 335.454041,183.652679 335.447723,182.011108 
	C335.399200,169.373840 335.531097,156.734741 335.352203,144.099823 
	C335.299133,140.351074 336.509735,138.466171 340.340759,138.371704 
	C344.278412,138.274612 347.748932,138.775894 348.676971,143.511322 
	C349.214325,146.253143 347.454071,149.973557 349.703552,151.545883 
	C351.396515,152.729218 354.779846,151.282410 357.393250,151.398651 
	C366.981995,151.825195 372.193970,157.183075 372.500854,166.985779 
	C372.677673,172.633911 372.610229,178.293228 372.510437,183.944992 
	C372.463776,186.587158 373.558380,190.154938 369.251923,190.518784 
	C365.139862,190.866211 360.620972,191.475998 359.237305,185.337158 
z"/>
<path fill="#1056B8" opacity="1.000000" stroke="none" 
	d="
M319.137360,141.746628 
	C322.696960,142.441483 325.721222,143.375183 327.918457,145.890717 
	C330.103912,148.392822 329.798706,151.072678 328.140869,153.718292 
	C326.403931,156.490204 324.465302,154.764740 322.534760,153.958130 
	C316.884064,151.597137 310.386810,152.645874 307.282074,156.376816 
	C304.046570,160.264908 303.590118,169.376434 306.401001,173.964188 
	C309.136688,178.429230 315.572845,180.541000 321.519318,178.848923 
	C324.349426,178.043610 327.454041,175.253281 329.229828,180.245209 
	C330.560364,183.985596 328.852356,187.518692 324.234436,189.126892 
	C314.936462,192.364899 305.945007,191.166382 298.294373,185.041840 
	C290.836243,179.071350 289.218170,170.507523 290.677521,161.483017 
	C292.933502,147.532211 303.455994,140.248978 319.137360,141.746628 
z"/>
<path fill="#1056B8" opacity="1.000000" stroke="none" 
	d="
M385.215790,168.019302 
	C389.298889,166.922638 393.056885,166.298264 396.909180,166.229065 
	C398.189972,166.206070 399.982300,166.347168 400.178314,164.687073 
	C400.399811,162.811386 398.567291,162.244873 397.136566,162.016403 
	C393.492310,161.434464 389.864960,161.626465 386.266968,162.646179 
	C384.474609,163.154205 382.399536,164.314407 381.146545,161.561981 
	C379.969269,158.975922 380.198761,156.668518 382.312592,154.746201 
	C388.768158,148.875488 406.546417,150.683517 411.765900,157.685913 
	C413.329559,159.783676 413.903168,162.142776 413.891724,164.716705 
	C413.868042,170.044540 413.731384,175.378998 413.947083,180.698318 
	C414.099396,184.454102 412.299683,186.743683 409.171417,188.100739 
	C401.164185,191.574326 392.949097,191.864716 384.937378,188.407990 
	C380.751587,186.602005 378.232727,183.093338 378.159058,178.181915 
	C378.085022,173.245392 380.324890,169.963333 385.215790,168.019302 
z"/>
<path fill="#1056B8" opacity="1.000000" stroke="none" 
	d="
M629.869385,189.010269 
	C617.432251,192.800842 606.903564,189.136658 602.562256,179.762268 
	C597.866211,169.621887 601.831909,157.955658 611.517578,153.417480 
	C621.863586,148.569916 634.404236,152.358658 639.197449,161.780151 
	C644.356750,171.921021 640.492432,183.609421 629.869385,189.010269 
z"/>
<path fill="#1056B8" opacity="1.000000" stroke="none" 
	d="
M484.118835,182.818924 
	C478.273590,173.280807 479.336578,162.559875 486.543884,156.080856 
	C493.199615,150.097702 504.482147,149.757477 512.019226,155.262756 
	C514.384033,156.990051 516.049011,159.214249 517.103760,161.903900 
	C519.791016,168.756683 517.747253,172.388626 510.530579,173.559662 
	C506.269867,174.251022 501.988159,174.816010 497.734924,175.548447 
	C496.738617,175.720016 495.083008,175.341766 495.104279,177.078308 
	C495.120850,178.427353 496.400146,178.889389 497.491882,179.304016 
	C501.563263,180.850250 505.650665,180.570862 509.720398,179.307785 
	C512.318542,178.501450 515.000061,177.374481 516.211365,181.179916 
	C517.325012,184.678604 515.678772,186.904770 512.696960,188.478973 
	C503.947815,193.097977 491.318054,190.723038 484.118835,182.818924 
z"/>
<path fill="#1056B8" opacity="1.000000" stroke="none" 
	d="
M645.921997,181.191986 
	C647.910706,178.683685 649.425537,176.163834 651.555725,174.377914 
	C655.104919,171.402390 654.317627,168.885254 651.575562,166.085678 
	C650.062012,164.540390 648.680603,162.866470 647.213074,161.275055 
	C645.022400,158.899567 644.219849,156.490082 646.842651,153.866745 
	C649.553284,151.155487 652.661377,150.252045 655.708801,152.884506 
	C657.942322,154.813934 659.691895,157.336746 661.501526,159.713608 
	C663.050720,161.748459 664.366638,161.666397 665.791077,159.685181 
	C666.956970,158.063461 668.130005,156.446625 669.319214,154.841904 
	C672.190918,150.966904 675.344116,150.425415 679.001770,153.357620 
	C682.292908,155.996033 681.043945,158.940247 679.217346,161.762131 
	C678.406372,163.015121 677.406067,164.146896 676.476196,165.321411 
	C671.844421,171.171829 671.844788,171.168701 676.529480,177.329147 
	C677.436157,178.521393 678.235291,179.806290 679.228455,180.919525 
	C681.171448,183.097336 682.392334,185.308136 680.082947,187.945465 
	C677.876831,190.464874 675.234985,191.260406 672.006958,190.003296 
	C668.624023,188.685822 667.025146,185.673386 665.220642,182.924332 
	C663.202148,179.849365 661.543701,180.031433 659.741638,183.021881 
	C658.969360,184.303497 657.953125,185.446457 657.253174,186.761749 
	C655.365723,190.308441 652.695435,191.422638 648.989746,189.678116 
	C645.371643,187.974823 644.180908,185.285065 645.921997,181.191986 
z"/>
<path fill="#1056B8" opacity="1.000000" stroke="none" 
	d="
M427.853760,144.363251 
	C432.605042,144.655273 435.190460,146.679520 434.747589,151.335220 
	C434.407196,154.912949 436.325256,155.572678 439.282379,155.344421 
	C442.800293,155.072845 446.038605,155.031631 445.961548,160.145920 
	C445.887665,165.047821 443.052795,166.062683 439.058197,165.699341 
	C435.826385,165.405380 434.399719,166.625046 434.753876,169.932236 
	C434.912506,171.413696 434.899597,172.937607 434.757965,174.422562 
	C434.350586,178.693192 436.100800,180.738907 440.486145,180.274918 
	C442.734863,180.036987 444.912231,179.952621 445.552917,182.879211 
	C446.174255,185.717285 445.003632,187.791458 442.678101,189.223114 
	C434.076538,194.518463 421.876404,188.440948 421.505127,178.413010 
	C421.141937,168.603027 421.485199,158.768784 421.369141,148.946960 
	C421.315735,144.428879 424.360596,144.470932 427.853760,144.363251 
z"/>
<path fill="#1055B6" opacity="1.000000" stroke="none" 
	d="
M467.035614,165.965836 
	C464.658966,169.701447 465.682495,173.566101 465.861206,177.275131 
	C466.014191,180.450577 468.855621,180.314270 471.215240,180.248566 
	C473.395660,180.187866 475.730652,179.762527 476.366302,182.736359 
	C477.006409,185.731155 475.758606,187.971802 473.186066,189.399979 
	C463.956970,194.523590 452.440277,188.095551 452.275940,177.652771 
	C452.132080,168.511566 452.340179,159.364746 452.187103,150.223846 
	C452.129639,146.790695 452.559357,144.428009 456.799377,144.304657 
	C462.354980,144.142990 465.581757,145.714630 465.463135,150.059937 
	C465.334381,154.776855 467.300903,155.845169 471.358124,155.340363 
	C474.832001,154.908157 476.672577,156.407364 476.797699,160.045471 
	C476.927765,163.827713 475.093353,165.568909 471.466675,165.714005 
	C470.138489,165.767136 468.809296,165.795578 467.035614,165.965836 
z"/>
<path fill="#1055B6" opacity="1.000000" stroke="none" 
	d="
M524.039307,172.008453 
	C524.039795,169.020721 524.031860,166.528580 524.042175,164.036484 
	C524.068420,157.697937 525.604187,155.410767 531.535583,153.346878 
	C535.470886,151.977570 539.528748,151.020920 543.742493,151.401596 
	C546.530884,151.653488 548.906372,152.759735 550.023621,155.575043 
	C551.303345,158.799911 549.721436,161.268646 546.114990,161.766739 
	C545.293701,161.880188 544.470764,162.010574 543.644409,162.054245 
	C538.465698,162.327927 536.475098,164.910706 536.923950,170.152725 
	C537.347595,175.100693 536.937805,180.115051 537.043091,185.097061 
	C537.108459,188.188858 536.988647,190.664337 532.794739,190.738632 
	C527.431458,190.833649 524.426819,189.392578 524.158630,185.457520 
	C523.865540,181.156967 524.058289,176.823303 524.039307,172.008453 
z"/>
<path fill="#040C17" opacity="1.000000" stroke="none" 
	d="
M201.421478,82.345001 
	C217.417450,81.044441 232.422882,77.403542 246.976669,71.911255 
	C252.125046,69.968361 257.074188,69.313622 261.552765,73.056618 
	C266.353851,77.069153 266.752563,82.350632 265.340759,88.109512 
	C263.055023,97.432831 257.712006,105.056084 251.995239,112.453224 
	C250.494766,114.394760 249.911484,115.911171 251.185242,118.235619 
	C266.298340,145.814972 265.704742,174.015991 254.059067,202.474823 
	C243.955887,227.164185 228.877151,248.238113 207.335770,264.268036 
	C195.552460,273.036560 182.607895,279.357635 167.672470,280.677429 
	C166.015320,280.823883 164.352875,281.013275 162.693192,281.010254 
	C155.010559,280.996246 151.044388,274.374573 154.653503,267.566498 
	C156.367584,264.333160 158.221176,261.173859 160.007141,257.978516 
	C161.828049,254.720627 160.947891,253.464279 157.150879,252.870148 
	C133.010635,249.092865 112.973381,237.660278 98.493065,218.093414 
	C75.940254,187.618423 73.641090,154.731064 89.756882,120.590660 
	C91.543427,116.805954 91.799850,114.367737 89.069069,110.901329 
	C83.286888,103.561462 78.307060,95.650787 76.463844,86.211578 
	C74.348335,75.377975 82.935448,67.327637 93.177505,71.275917 
	C123.030083,82.783981 154.079086,84.800133 185.566605,83.768684 
	C190.711670,83.600143 195.839157,82.894501 201.421478,82.345001 
z"/>
<path fill="#041328" opacity="1.000000" stroke="none" 
	d="
M581.109924,171.773163 
	C583.651733,174.696289 583.519348,177.329681 580.669434,179.276794 
	C577.435181,181.486511 573.296875,181.877731 570.302734,179.881073 
	C567.766418,178.189713 568.710754,174.237030 569.663025,171.547867 
	C570.447815,169.331497 573.175293,170.445053 575.066284,170.284332 
	C577.079285,170.113220 579.052673,170.362381 581.109924,171.773163 
z"/>
<path fill="#041328" opacity="1.000000" stroke="none" 
	d="
M569.452820,152.725403 
	C570.476501,151.379913 571.625000,151.287476 572.793701,151.301315 
	C575.937744,151.338516 579.207642,151.165573 581.083130,154.435638 
	C582.059631,156.138184 582.067627,157.937790 580.709473,159.504318 
	C578.173157,162.429703 574.744629,161.790848 571.483521,161.676956 
	C569.871948,161.620682 569.175720,160.545746 569.172546,159.035095 
	C569.168396,157.059875 569.243652,155.084457 569.452820,152.725403 
z"/>
<path fill="#041328" opacity="1.000000" stroke="none" 
	d="
M391.035278,177.789749 
	C392.620087,174.755814 397.876404,172.957062 400.249237,174.191177 
	C401.507263,174.845505 401.577698,175.998291 401.586853,177.171021 
	C401.598450,178.654739 400.955383,179.862839 399.489929,180.198547 
	C396.402771,180.905777 393.190796,181.773849 391.035278,177.789749 
z"/>
<path fill="#030E1E" opacity="1.000000" stroke="none" 
	d="
M615.199097,176.490784 
	C613.635193,172.393204 613.704712,168.718201 615.397888,165.068726 
	C616.404419,162.899399 618.111450,161.727875 620.410645,161.551315 
	C624.441772,161.241760 626.416016,163.685623 627.469849,167.170258 
	C628.934509,172.013092 627.402405,178.206467 624.145203,179.710175 
	C620.476624,181.403748 617.375732,180.616013 615.199097,176.490784 
z"/>
<path fill="#041328" opacity="1.000000" stroke="none" 
	d="
M493.731262,166.675919 
	C494.407990,161.849487 500.406158,159.615753 503.849335,162.579620 
	C504.495605,163.135941 505.114807,163.777313 504.861969,164.647980 
	C504.601105,165.546249 503.693176,165.677902 502.859009,165.779831 
	C499.931580,166.137650 497.005157,166.504196 493.731262,166.675919 
z"/>
<path fill="#FAFBFB" opacity="1.000000" stroke="none" 
	d="
M157.417694,234.890137 
	C115.765121,227.542877 92.840645,186.522736 98.348656,155.007935 
	C101.332825,168.482834 108.410088,178.257507 120.346771,184.315384 
	C128.998016,188.705933 138.108154,189.985992 147.518936,187.851089 
	C150.629517,187.145416 152.026627,188.016876 153.407272,190.585907 
	C156.324432,196.013992 159.428162,201.346878 162.601669,206.630951 
	C167.395584,214.613083 174.928421,214.528214 179.735168,206.451050 
	C182.972824,201.010574 186.125290,195.516968 189.192245,189.978653 
	C190.305099,187.969025 191.446274,187.201050 193.936172,187.727264 
	C209.149292,190.942474 222.232193,186.735199 233.608856,175.786179 
	C235.929474,177.477844 235.054626,179.678604 234.524887,181.703079 
	C226.918503,210.771591 211.103821,234.398270 187.203537,252.574448 
	C185.184677,254.109802 182.716995,256.940399 180.212341,252.521240 
	C180.158768,249.851425 180.293488,247.538391 180.008301,245.278320 
	C179.303589,239.693375 176.810822,237.416946 170.291565,236.262222 
	C168.223511,235.871979 166.490326,236.113632 164.464478,235.822464 
	C162.643478,235.631882 161.137756,235.510498 159.282318,235.241089 
	C158.527451,235.047562 158.122955,234.996964 157.417694,234.890137 
z"/>
<path fill="#B0CAF1" opacity="1.000000" stroke="none" 
	d="
M226.130066,147.727264 
	C226.564468,160.403534 216.833725,170.606262 204.310028,171.055328 
	C191.272766,171.522797 180.935699,162.044769 180.390686,148.721985 
	C183.080048,137.247787 192.613373,129.553482 203.607178,129.623077 
	C213.830978,129.687805 223.893524,137.623016 226.130066,147.727264 
z"/>
<path fill="#B1CBF1" opacity="1.000000" stroke="none" 
	d="
M161.679321,147.939102 
	C161.747253,160.411392 152.276382,170.563934 140.577652,171.047516 
	C127.202911,171.600357 116.994652,162.827042 115.863205,149.371094 
	C118.222900,138.139709 124.355972,132.165573 135.182968,130.147232 
	C143.724091,128.555023 154.251038,133.338531 159.346848,141.011368 
	C160.690445,143.034424 161.111893,145.283463 161.679321,147.939102 
z"/>
<path fill="#B1C9ED" opacity="1.000000" stroke="none" 
	d="
M180.005585,252.420441 
	C181.408691,253.901535 182.595428,254.462631 184.633163,252.969391 
	C204.457153,238.442581 218.852066,219.687866 228.140808,197.022247 
	C230.837418,190.442245 233.404633,183.742676 233.920532,176.074005 
	C238.204956,169.915878 241.957703,163.914673 243.637009,156.208969 
	C250.660965,187.067184 216.650436,246.871124 178.665985,259.596039 
	C179.075104,257.099670 179.435577,254.900085 180.005585,252.420441 
z"/>
<path fill="#1A5BB7" opacity="1.000000" stroke="none" 
	d="
M161.913696,147.877838 
	C158.793579,142.154297 155.317642,136.590286 148.666336,133.485306 
	C135.425598,127.304245 122.119789,133.334229 116.113419,148.699692 
	C114.152107,135.686081 125.756866,125.179626 137.078156,124.321434 
	C150.718170,123.287483 161.516754,133.382156 161.913696,147.877838 
z"/>
<path fill="#1A5BB7" opacity="1.000000" stroke="none" 
	d="
M226.391968,147.813385 
	C223.228256,142.100677 219.788589,136.636765 213.367859,133.522186 
	C200.599319,127.328392 187.776962,132.893646 180.664261,148.105377 
	C179.485336,139.955734 184.091965,131.623627 192.151215,127.113235 
	C200.289017,122.558884 210.163330,123.462021 217.784592,129.467209 
	C223.618851,134.064346 226.593735,140.063034 226.391968,147.813385 
z"/>
<path fill="#1053B2" opacity="1.000000" stroke="none" 
	d="
M116.747330,96.226440 
	C118.173859,96.808220 119.297073,97.167763 120.290710,97.748878 
	C122.395096,98.979607 122.322029,100.598282 120.115730,101.259018 
	C115.210075,102.728127 110.187500,103.812675 105.197594,104.990494 
	C103.949707,105.285049 102.891434,104.666885 102.173874,103.673515 
	C99.360847,99.779228 96.586708,95.856705 93.818275,91.930458 
	C93.217621,91.078598 92.867905,90.083038 93.594673,89.178215 
	C94.508270,88.040825 95.684906,88.522530 96.785530,88.925087 
	C103.319931,91.315125 109.852272,93.710808 116.747330,96.226440 
z"/>
<path fill="#1053B2" opacity="1.000000" stroke="none" 
	d="
M225.357117,96.352806 
	C232.090714,93.849251 238.473190,91.498520 244.855911,89.148415 
	C246.085220,88.695801 247.446121,87.852631 248.506454,89.182785 
	C249.552322,90.494827 248.452942,91.628845 247.775482,92.765320 
	C239.926498,105.932419 239.927582,105.949646 225.402969,102.207588 
	C223.571991,101.735870 220.739166,102.069710 220.553818,99.634666 
	C220.359894,97.087013 223.384888,97.424675 225.357117,96.352806 
z"/>
<path fill="#DADBDC" opacity="1.000000" stroke="none" 
	d="
M169.006226,175.450424 
	C170.624039,173.363297 171.862900,173.740799 173.156189,175.384933 
	C174.248337,176.773361 176.016296,177.853851 174.625671,180.032043 
	C173.572052,181.682373 172.599091,183.384201 171.133499,185.823242 
	C169.728699,182.050842 164.623550,180.159058 169.006226,175.450424 
z"/>
<path fill="#B1C9ED" opacity="1.000000" stroke="none" 
	d="
M164.412781,235.954330 
	C165.898605,234.484131 167.707733,234.968597 169.726288,235.856506 
	C168.181747,236.903076 166.428299,236.219849 164.412781,235.954330 
z"/>
<path fill="#B1C9ED" opacity="1.000000" stroke="none" 
	d="
M157.224640,235.031174 
	C157.565994,234.040176 158.138367,234.148575 158.845963,234.854477 
	C158.448685,235.739212 157.877411,235.318069 157.224640,235.031174 
z"/>
<path fill="#0F1824" opacity="1.000000" stroke="none" 
	d="
M206.356064,138.136124 
	C211.320694,140.335068 213.735825,143.875732 213.136307,148.899628 
	C212.589279,153.483643 209.666153,156.281021 205.205734,157.362671 
	C200.971939,158.389374 197.782486,156.534592 195.280853,153.335907 
	C193.825562,151.475098 193.046432,149.304443 193.600098,146.862381 
	C194.875351,145.585815 195.671722,147.168884 196.673309,147.345917 
	C200.942032,148.100418 204.260696,145.032959 202.744049,141.033569 
	C200.981369,136.385437 203.844254,137.878387 206.356064,138.136124 
z"/>
<path fill="#0F1824" opacity="1.000000" stroke="none" 
	d="
M134.734940,147.361008 
	C139.966522,145.305115 139.037918,141.864136 137.228302,138.283829 
	C142.796066,137.532227 146.609207,139.729507 148.272781,144.489716 
	C149.870987,149.062881 147.922073,153.937210 143.522629,156.370087 
	C139.392456,158.654022 134.550018,157.766617 131.386932,154.091675 
	C129.706619,152.139465 128.134033,149.661057 129.223022,147.326401 
	C130.389267,144.826141 132.531052,148.699280 134.734940,147.361008 
z"/>
</svg>